<svg width="38" height="16" viewBox="0 0 38 16" fill="none" xmlns="http://www.w3.org/2000/svg">
<path d="M0.996094 7C0.443809 7 -0.0039062 7.44772 -0.00390625 8C-0.0039063 8.55228 0.443809 9 0.996094 9L0.996094 7ZM37.7032 8.70711C38.0937 8.31659 38.0937 7.68342 37.7032 7.2929L31.3392 0.928935C30.9487 0.53841 30.3156 0.53841 29.925 0.928935C29.5345 1.31946 29.5345 1.95262 29.925 2.34315L35.5819 8L29.925 13.6569C29.5345 14.0474 29.5345 14.6805 29.925 15.0711C30.3155 15.4616 30.9487 15.4616 31.3392 15.0711L37.7032 8.70711ZM0.996094 9L36.9961 9L36.9961 7L0.996094 7L0.996094 9Z" fill="black"/>
</svg>
