<?xml version="1.0" encoding="iso-8859-1"?>
<!-- Uploaded to: SVG Repo, www.svgrepo.com, Generator: SVG Repo Mixer Tools -->
<svg fill="#000000" height="800px" width="800px" version="1.1" id="Layer_1" xmlns="http://www.w3.org/2000/svg" xmlns:xlink="http://www.w3.org/1999/xlink" 
	 viewBox="0 0 512 512" xml:space="preserve">
<g>
	<g>
		<path d="M391.529,271.059c-66.534,0-120.471,53.936-120.471,120.471S324.995,512,391.529,512S512,458.064,512,391.529
			S458.064,271.059,391.529,271.059z M376.471,453.591l-53.618-53.62l31.944-31.944l21.674,21.676l51.793-51.792l31.944,31.944
			L376.471,453.591z"/>
	</g>
</g>
<g>
	<g>
		<path d="M376.471,0c-41.583,0-75.294,33.711-75.294,75.294C301.176,33.711,267.466,0,225.882,0s-75.294,33.711-75.294,75.294
			C150.588,33.711,116.878,0,75.294,0S0,33.711,0,75.294v150.588C0,286.118,75.294,323.765,75.294,384v45.176
			c0,29.109,23.597,52.706,52.706,52.706s52.706-23.597,52.706-52.706v-37.647c0-24.949,20.227-45.176,45.177-45.176
			c2.078,0,4.119,0.154,6.123,0.425c19.524-69.742,83.548-120.895,159.524-120.895c20.932,0,40.954,3.893,59.392,10.978
			c0.545-3.579,0.843-7.234,0.843-10.978V75.294C451.765,33.711,418.054,0,376.471,0z"/>
	</g>
</g>
</svg>