<?xml version="1.0" encoding="iso-8859-1"?>
<!-- Uploaded to: SVG Repo, www.svgrepo.com, Generator: SVG Repo Mixer Tools -->
<!DOCTYPE svg PUBLIC "-//W3C//DTD SVG 1.1//EN" "http://www.w3.org/Graphics/SVG/1.1/DTD/svg11.dtd">
<svg fill="#000000" height="800px" width="800px" version="1.1" id="Capa_1" xmlns="http://www.w3.org/2000/svg" xmlns:xlink="http://www.w3.org/1999/xlink" 
	 viewBox="0 0 421.127 421.127" xml:space="preserve">
<g>
	<path d="M79.697,90.601c24.788,0,44.955-20.166,44.955-44.954S104.485,0.692,79.697,0.692c-24.787,0-44.953,20.166-44.953,44.954
		S54.91,90.601,79.697,90.601z"/>
</g>
<path d="M420.741,275.908c-0.592-1.569-1.814-2.819-3.369-3.447l-19.988-8.063c-1.51-6.524-6.424-11.762-12.761-13.732
	l-1.035-11.936c-0.206-2.377-1.801-4.405-4.062-5.167c-2.26-0.762-4.758-0.112-6.361,1.655l-3.758,4.145l-2.643-9.25
	c-0.715-2.502-2.96-4.258-5.561-4.348c-2.615-0.117-4.963,1.506-5.85,3.951l-23.17,63.923l-219.549-44.286v-81.008l15.211,16.391
	c3.48,4.053,8.531,6.374,13.882,6.374c0.001,0,0,0,0,0c0.163,0-0.162-0.018,0-0.021c0.02,0-0.02,0.003,0,0.003h53.445
	c10.191,0,18.483-8.29,18.483-18.48c0-10.194-8.292-18.487-18.483-18.487h-45.195l-43.673-46.89c-0.266-0.286,0.304,0.223,0,0
	c-4.289-4.592-10.392-7.471-17.156-7.471H60.558c-8.589,0-16.112,4.637-20.208,11.536c-0.161,0.228,0.131-0.254,0,0L1.859,186.063
	c-0.054,0.105-0.104,0.212-0.152,0.319c-2.406,5.451-2.174,11.397,0.107,16.442c0.075,0.213-0.1-0.205,0,0l54.21,118.127
	l-43.917,59.643c-7.406,8.859-6.317,22.1,2.467,29.608l0.492,0.423c3.823,3.269,8.696,5.068,13.723,5.068
	c6.194,0,12.053-2.698,16.075-7.403c0.095-0.11-0.086,0.117,0,0c0,0,54.303-73.986,54.489-74.714
	c2.741-5.021,3.475-11.12,1.485-16.948c-0.062-0.182,0.079,0.174,0,0l-5.771-12.831l18.963,13.314l-7.106,67.516
	c-0.619,5.612,0.983,11.129,4.513,15.534c3.53,4.406,8.565,7.174,14.164,7.79l0.638,0.072c0.774,0.085,1.559,0.129,2.334,0.129
	c10.781,0,19.804-8.092,20.992-18.852l8.04-76.408c2.39-8.137-0.261-17.274-7.381-22.74c-0.042-0.032-0.083-0.064-0.126-0.095
	l-37.461-27.231v-1.232l180.3,36.369l-46.69,3.386c-13.112,1.098-26.044-4.206-34.578-14.179c-2.155-2.517-5.942-2.811-8.46-0.657
	c-2.518,2.154-2.812,5.942-0.657,8.46c9.326,10.897,22.705,17.469,36.819,18.396c-5.609,6.695-10.614,16.822-11.536,31.984
	l-19.735,8.772c-1.514,0.673-2.683,1.942-3.229,3.507l-10.598,30.399c-0.527,1.512-0.428,3.172,0.275,4.609
	c0.703,1.439,1.951,2.536,3.467,3.05l8.152,2.759c0.637,0.216,1.286,0.318,1.924,0.318c2.448,0,4.74-1.51,5.631-3.931l7.274-19.78
	l11.932-1.436l-3.517,4.242c-1.126,1.358-1.598,3.145-1.288,4.883l5.841,32.741c0.511,2.862,2.999,4.946,5.907,4.946h7.839
	c1.772,0,3.453-0.783,4.593-2.14c1.14-1.357,1.622-3.147,1.318-4.893l-3.602-20.633l38.324-28.761
	c0.087-0.065,0.173-0.134,0.258-0.204c2.994-2.515,5.336-5.227,7.182-8.028c12.523,2.986,27.655,6.389,40.982,8.807l7.879,50.771
	c0.454,2.924,2.971,5.08,5.929,5.08h7.34c3.314,0,6-2.686,6-6v-44.575l13.528,2.949l16.908,27.682
	c0.839,1.373,2.195,2.353,3.763,2.717c0.449,0.104,0.904,0.155,1.358,0.155c1.13,0,2.248-0.319,3.217-0.936l5.33-3.386
	c2.414-1.533,3.41-4.557,2.38-7.225l-13.25-34.338c-0.59-1.53-1.781-2.752-3.296-3.381l-21.895-9.095l9.286-42.753
	c1.655,0.222,3.322,0.343,4.999,0.343c14.338,0,27.462-8.381,34.248-21.871C421.241,279.224,421.333,277.478,420.741,275.908z
	 M67.671,150.447l-24.532,43.972l20.713,42.707c3.94,8.133,1.958,17.972-4.819,23.927c-1.139,1.002-2.552,1.493-3.958,1.493
	c-1.666,0-3.323-0.689-4.509-2.039c-2.188-2.489-1.943-6.28,0.546-8.468c2.738-2.406,3.537-6.387,1.942-9.679l-22.076-45.517
	c-0.855-1.762-0.795-3.831,0.159-5.541l26.055-46.701c1.614-2.895,5.27-3.932,8.163-2.316
	C68.248,143.899,69.285,147.554,67.671,150.447z"/>
</svg>