<svg width="35" height="35" viewBox="0 0 35 35" fill="none" xmlns="http://www.w3.org/2000/svg">
<path d="M13.6112 15.5556C17.9068 15.5556 21.389 12.0733 21.389 7.77778C21.389 3.48223 17.9068 0 13.6112 0C9.31561 0 5.83336 3.48223 5.83336 7.77778C5.83336 12.0733 9.31561 15.5556 13.6112 15.5556Z" fill="white"/>
<path d="M13.6112 35C21.1284 35 27.2224 31.5178 27.2224 27.2222C27.2224 22.9267 21.1284 19.4444 13.6112 19.4444C6.09393 19.4444 0 22.9267 0 27.2222C0 31.5178 6.09393 35 13.6112 35Z" fill="white"/>
<path d="M21.314 15.1967C23.1665 13.2738 24.3057 10.6589 24.3057 7.77794C24.3057 6.40789 24.048 5.09801 23.5786 3.89411C26.6865 4.02266 29.1667 6.58288 29.1667 9.72238C29.1667 12.944 26.555 15.5557 23.3333 15.5557C22.6235 15.5557 21.9432 15.4289 21.314 15.1967Z" fill="white"/>
<path d="M30.1389 27.2221C30.1389 28.2698 29.906 29.2823 29.472 30.2391C32.7901 29.2106 35 27.3731 35 25.2776C35 22.3489 30.6833 19.9243 25.0576 19.5076C28.1895 21.4537 30.1389 24.1906 30.1389 27.2221Z" fill="white"/>
</svg>
