<svg width="156" height="156" viewBox="0 0 156 156" fill="none" xmlns="http://www.w3.org/2000/svg">
<path d="M71.664 109H59V122.5H71.5V134.5H85V122H97V109H85V96.5H71.664V109Z" fill="#FFB900"/>
<path d="M57.657 58.8896C64.9266 57.6541 70.318 51.0334 71.1385 43.1242C71.9716 35.0809 73.8498 2.75769 61.7161 4.81377C30.2416 10.1521 32.4505 63.164 57.657 58.8896ZM99.0688 58.8896C124.269 63.164 126.478 10.1521 95.0034 4.81065C82.8728 2.75457 84.748 35.0778 85.5779 43.1211C86.4016 51.0334 91.7992 57.6541 99.0688 58.8896ZM44.7277 83.8652C44.7277 79.6594 43.227 75.8468 40.809 73.0731C36.831 67.8752 24.1857 57.3639 21.0813 60.0565C14.601 65.6912 14.8101 79.5596 18.7132 89.6372C20.7193 95.2407 25.5647 99.1813 31.2275 99.1813C38.6812 99.1813 44.7277 92.3235 44.7277 83.8652ZM135.635 60.0565C132.537 57.3639 119.892 67.8752 115.914 73.0731C113.496 75.8468 111.992 79.6594 111.992 83.8652C111.992 92.3235 118.045 99.1813 125.492 99.1813C131.158 99.1813 136.006 95.2407 138.013 89.6372C141.906 79.5596 142.122 65.6912 135.635 60.0565ZM110.251 107.721C98.7817 102.002 99.1374 90.9882 96.5291 80.9386C94.4543 72.9234 87.1067 66.9954 78.3613 66.9954C69.8032 66.9954 62.5835 72.6769 60.3309 80.4488C57.5385 90.0646 59.2201 101.259 46.7183 107.646C36.5627 110.956 32.4505 115.786 32.4505 127.208C32.4505 136.487 40.4159 146.421 50.6963 147.657C62.1654 149.385 71.1136 147.126 78.3613 142.995C85.6091 147.126 94.551 149.382 106.039 147.657C116.313 146.421 124.281 136.525 124.281 127.208C124.278 115.536 120.428 111.187 110.251 107.721ZM96.7194 121.68H84.8291L84.8447 134.16H71.878L71.8967 121.68H59.2794V109.2H71.8998L71.8811 96.7196H84.8478L84.8322 109.2H96.7194V121.68Z" fill="black"/>
</svg>
