<svg version="1.2" xmlns="http://www.w3.org/2000/svg" viewBox="0 0 167 65" width="167" height="65">
	<title>logo-1</title>
	<defs>
		<clipPath clipPathUnits="userSpaceOnUse" id="cp1">
			<path d="m16 16h32.5v32.5h-32.5z"/>
		</clipPath>
	</defs>
	<style>
		tspan { white-space:pre } 
		.t0 { font-size: 28px;fill: #000000;font-weight: 400;font-family: "Aclonica-Regular", "Aclonica" } 
		.s1 { fill: #FFA270 } 
		.s2 { fill: #000000 } 
	</style>
	<text id="Demo" style="transform: matrix(1,0,0,1,74,42)" >
		<tspan x="0" y="0" class="t0">D</tspan><tspan  y="0" class="t0">e</tspan><tspan  y="0" class="t0">m</tspan><tspan  y="0" class="t0">o
</tspan>
	</text>
	<path fill-rule="evenodd" class="s1" d="m32.5 65c18 0 32.5-14.5 32.5-32.5 0-18-14.5-32.5-32.5-32.5-18 0-32.5 14.5-32.5 32.5 0 18 14.5 32.5 32.5 32.5z"/>
	<g id="Clip-Path" clip-path="url(#cp1)">
		<g>
			<path class="s2" d="m31.2 24q0 1.2-0.3 2.2-0.4 1.1-1.3 1.8c-0.5 0.5-1.2 0.8-2 0.8q0 0 0 0c-1.1-0.1-2-0.5-2.7-1.2-0.8-0.7-1.4-1.6-1.8-2.6-0.4-0.9-0.6-1.9-0.6-3q0 0 0 0 0-1.2 0.4-2.2 0.4-1.1 1.2-1.8c0.5-0.5 1.2-0.8 2-0.8q0 0 0.1 0.1c1 0 2 0.4 2.7 1.1 0.7 0.7 1.3 1.6 1.7 2.6 0.4 0.9 0.6 1.9 0.6 3zm-6.7 9.4q0.1 0.1 0.1 0.1c0 1-0.4 1.9-0.9 2.6-0.5 0.7-1.3 1.2-2.2 1.2q0 0-0.1 0c-1.1 0-2-0.4-2.8-1.1-1.5-1.4-2.5-3.4-2.6-5.6q0 0 0-0.1c0-1 0.3-1.9 0.8-2.6 0.5-0.7 1.3-1.2 2.2-1.2q0.1 0 0.1 0c1.1 0 2.1 0.4 2.8 1.1 1.6 1.4 2.6 3.4 2.6 5.6zm7.8-0.5c1.9 0.1 3.6 0.8 4.9 1.9q2.7 1.9 4.5 4.5v0.1c1 1.4 1.7 3.1 1.8 5q0 0 0 0.1 0 0.8-0.3 1.4-0.4 0.6-1 0.8v0.1q-0.5 0.2-1.2 0.3-0.7 0.1-1.4 0.1-0.1 0-0.1 0-2-0.1-3.8-0.9l0.1 0.1c-1-0.5-2.2-0.8-3.5-0.9q-2.1 0.2-3.9 0.9h0.1c-1.2 0.4-2.5 0.7-3.9 0.8q-3.6 0-3.6-2.8c0.1-1.4 0.5-2.7 1.1-3.8q1.1-2.1 2.7-3.7 1.6-1.7 3.6-2.8l0.1-0.1c1.1-0.6 2.3-1.1 3.7-1.1zm4.7-4.1q0 0 0 0c-0.8 0-1.5-0.3-2-0.8-0.6-0.5-1-1.1-1.3-1.8-0.2-0.7-0.3-1.4-0.3-2.2q0 0 0 0 0-1.6 0.6-3h-0.1q0.7-1.5 1.8-2.6c0.7-0.7 1.7-1.1 2.7-1.1h0.1c0.8 0 1.5 0.2 2 0.7 0.5 0.5 1 1.1 1.2 1.8 0.3 0.7 0.4 1.4 0.4 2.2q0 1.6-0.6 3-0.6 1.6-1.8 2.6c-0.7 0.7-1.6 1.1-2.7 1.2zm8.4-2.1q0.1 0 0.2 0c0.9 0 1.7 0.5 2.2 1.2 0.5 0.7 0.8 1.6 0.8 2.6q0 0.1 0 0.1c-0.1 2.2-1.1 4.2-2.6 5.6h-0.1c-0.7 0.6-1.7 1.1-2.7 1.1q-0.1 0-0.1 0c-0.9 0-1.8-0.5-2.2-1.2-0.6-0.7-0.9-1.6-0.9-2.6q0 0 0-0.1c0.1-2.2 1.1-4.2 2.7-5.6 0.7-0.7 1.7-1.1 2.7-1.1z"/>
		</g>
	</g>
</svg>